<svg xmlns="http://www.w3.org/2000/svg" viewBox="0 0 1953.07 98.03" preserveAspectRatio="none"><g id="Layer_2" data-name="Layer 2"><rect width="1952.9" height="98.03" fill="#bb9a8e"/></g><g id="Layer_3" data-name="Layer 3"><path id="Path_3" data-name="Path 3" d="M.54,98,8.46,19.36,50.57,2.18l33,1.5L121.21,0l53.7,12.07L204.27.69l41.84.22L311,9.54l11,13.58,12.09-7.52,30.59-8.37L399.36,8.8l35.37-2.88,23.42,9.6L522.69.16l55.48.56,34.49,11.35L669.15.7l49.59,4.81,63.16,13L826.06,3.68l64.12.44,40.73,7.93,80.92-8.37h79.82L1122,30.4h14.08l18.55-10,40.51-11.64,60.42-2.5,41.46-1.51,34.8,12.48,35.88-3.54,32.42,2.58,30.82,17,12.7-2.51,10.69-15.47L1537,2.1l86.7,1.58,21.1,10.75,48-7.55,42.32-3,38.25,8.4,42.32-4.2,50.47,9.4L1911.26,20,1942,45.12l10.9,40.2V98Z" fill="#8e5742"/><path id="Path_2" data-name="Path 2" d="M1953,98l-34.69-14.9-51.45-3.28-45.71-13.44-26.27-.32-50.47,3.37-91.42-10L1577.17,69l-48.82-14.75-61.81-.28-91,11.43L1342.38,56h-60.81l-48.2,14-33.95-12.63-86.54,8L1067.77,52h-32.54L984,79.64,920.11,65.36l-60-3.7-48.16,11-37-8.8-42.66-1.57-33.93,8.61L672.18,75,638.43,57.41,589.66,56,531.5,61.66l-26.19,1.15-39.57,8.12L381.8,57.41l-55.68,2-47.18,9.74-66.75-5.53h-44.7l-29.05,7.69L93.75,75.5,72,75.43,50.49,80.82,31.35,86.21,0,98Z" fill="#be3e0c"/><path id="Path_1" data-name="Path 1" d="M0,98l11.36-8.52,40.3-3.61,24.48-7.22,23.8,1.17,33,6.4,49.27-10,19.55-.39,89.08,9.83,55-8.3,61.9-5.88L468.68,84l53.7-5.92,43.1-14.83,87.61,6.88,39.84,19.09,59.76-16.55h65.48l61.26,8.45,56.08-8.45,48.44,7,35.4-4.46,36.27-4.9,35.76,20.41h30.22l71-18,60.52,8.45,59.78-8.45,40.71,9.41,38.5-13.72,54.4,4.38,40.33-11.1,55.88,4.71,78.7,1.62,44.79,13.15,26.59-8.38,34.24-.07,27,18,31.78-15.46,38.75-.12,47.29,11.41,34.57-2.08,27.64,4.69,19,8.9Z" fill="#1f0a02"/></g></svg>