<svg id="Layer_1" data-name="Layer 1" xmlns="http://www.w3.org/2000/svg" viewBox="0 0 1922.99 244.58"><path id="Path_3" data-name="Path 3" d="M3,237,20.81,13.09H84.63L113.57,0l60.86,33L244.26,0l64.47,72.27,11.18,44.66V13.09L376.12,0,426.6,33l79.58-19.88L604.89,33,675.5,13.12l95.81,35.06,43.43-35.09L917.84,33l79.58-19.88h78.49L1115,135.58l24.57,23.81,71.32-146.3H1312l56.14,35.09h72.38l49.92,111.21L1541.07,0l58.06,13.09L1653,48.17,1682.57,33h39.22l17.51,15.2L1807.4,33h99.17l16.25,126.41V237Z" transform="translate(0 0)" fill="#f1c57b" opacity="0.85" style="isolation:isolate"/><path id="Path_2" data-name="Path 2" d="M1923,244.58,1822.44,158,1719.5,186.82l-119.27-40.27L1463,158,1355,175l-89.38-43.11-47,73.54L1181.88,158,1096.78,175l-44.35-28.41h-32L970,205.39,907.22,175l-57.47,11.86-31.13,32.65L748.68,158l-59.59,28.81L630.23,158l-49.46,28.81L525.23,158l-64.81,28.81L377.87,158l-95.54,28.81L242.47,158l-53.42,28.81L121.7,205.39,82.08,158,48,146.5,2.43,244.58Z" transform="translate(0 0)" fill="#8e6943"/><path id="Path_1" data-name="Path 1" d="M0,244.58l100.57-54,109.11,38.35L405,167.08l55,23.5,97.95-23.5,71.8,23.5,53.38,54,58-54h64.47l60.31,18,55.22-18,37.19,38.35,64.43-61.85,51.85,61.86h29.75l69.93-38.36,59.59,18,58.86-18,41.41,38.35,63.11-61.85,70.71,61.85,81.24-61.85,91.4,41.5,59.89-18L1727,228.93l59.56-38.35L1847,228.93l45.56-38.35,30.42,54Z" transform="translate(0 0)" fill="#1f0a02"/><g id="What_s_Happening_Next_" data-name="What s Happening Next "><g style="isolation:isolate"><text transform="translate(31.02 141.21)" font-size="100" fill="#250c03" font-family="Oswald-Bold, Oswald" font-weight="700" style="isolation:isolate">Wh</text><text transform="translate(151.62 141.21)" font-size="100" fill="#250c03" font-family="Oswald-Bold, Oswald" font-weight="700" style="isolation:isolate">a</text><text transform="translate(199.02 141.21)" font-size="100" fill="#250c03" font-family="Oswald-Bold, Oswald" font-weight="700" style="isolation:isolate">t’s Happening N</text><text transform="translate(841.51 141.21)" font-size="100" fill="#250c03" font-family="Oswald-Bold, Oswald" font-weight="700" letter-spacing="-0.01em" style="isolation:isolate">e</text><text transform="translate(887.61 141.21)" font-size="100" fill="#250c03" font-family="Oswald-Bold, Oswald" font-weight="700" style="isolation:isolate">xt?</text></g></g><g id="Magfest"><text transform="translate(1529.93 141.21)" font-size="100" fill="#250c03" font-family="Oswald-Bold, Oswald" font-weight="700" style="isolation:isolate">M<tspan x="70.4" y="0" letter-spacing="-0.01em">A</tspan><tspan x="124.2" y="0">GFest</tspan></text></g></svg>