<svg id="Layer_1" data-name="Layer 1" xmlns="http://www.w3.org/2000/svg" viewBox="0 0 1922.96 244.61"><path id="Path_3" data-name="Path 3" d="M1.39,237.42,19.24,13.51H83.06L112,.42l60.86,33,69.83-33,64.47,72.27,11.18,44.66V13.51L374.55.42l50.48,33,79.58-19.88,98.71,19.88,70.61-19.88L769.74,48.6l43.43-35.09,103.1,19.88,79.58-19.88h78.49L1113.43,136,1138,159.81l71.32-146.3H1310.4l56.14,35.09h72.38l49.92,111.21L1539.5.42l58.06,13.09,53.86,35.08L1681,33.39h39.22l17.51,15.2,68.1-15.2H1905l16.25,126.41v77.62Z" transform="translate(1.57 -0.42)" fill="#f1c57b" opacity="0.85" style="isolation:isolate"/><path id="Path_2" data-name="Path 2" d="M1921.39,245l-100.52-86.57-102.94,28.81-119.27-40.27-137.2,11.47-108,16.94-89.38-43.11-47,73.54-36.77-47.37-85.1,16.94-44.35-28.41h-32l-50.43,58.84-62.78-30.43-57.47,11.86-31.13,32.65-69.94-61.46-59.59,28.81-58.86-28.81-49.46,28.81-55.54-28.81-64.81,28.81-82.55-28.81-95.54,28.81-39.86-28.81-53.42,28.81-67.35,18.57L80.51,158.38,46.4,146.92.86,245Z" transform="translate(1.57 -0.42)" fill="#8e6943"/><path id="Path_1" data-name="Path 1" d="M-1.57,245,99,191l109.11,38.35,195.29-61.85,55,23.5,97.95-23.5L628.15,191l53.38,54,58-54H804l60.31,18,55.22-18,37.19,38.35,64.43-61.85L1073,229.36h29.75L1172.68,191l59.59,18,58.86-18,41.41,38.35,63.11-61.85,70.71,61.85,81.24-61.85L1639,209l59.89-18,26.55,38.35L1785,191l60.44,38.35L1891,191l30.42,54Z" transform="translate(1.57 -0.42)" fill="#1f0a02"/><g id="What_s_Happening_Next_" data-name="What s Happening Next " style="isolation:isolate"><text transform="translate(33.92 132.27)" font-size="100" fill="#250c03" font-family="Oswald-Bold, Oswald" font-weight="700" style="isolation:isolate">Wh<tspan x="120.6" y="0" letter-spacing="0em">a</tspan><tspan x="168" y="0">t’s Happening N</tspan><tspan x="810.49" y="0" letter-spacing="-0.01em">e</tspan><tspan x="856.59" y="0" letter-spacing="0em">xt?</tspan></text></g><g id="Magfest" style="isolation:isolate"><text transform="translate(1559.46 132.27)" font-size="100" fill="#250c03" font-family="Oswald-Bold, Oswald" font-weight="700" style="isolation:isolate">Magfest</text></g></svg>