<svg xmlns="http://www.w3.org/2000/svg" viewBox="0 0 1953.07 208.91"><g id="Layer_3" data-name="Layer 3"><path id="Path_3" data-name="Path 3" d="M.54,208.91,8.46,41.25,50.57,4.64l33,3.2L121.21,0l53.7,25.71L204.27,1.47l41.84.47L311,20.32l11,28.94,12.09-16,30.59-17.83,34.65,3.34,35.37-6.14,23.42,20.46L522.69.35l55.48,1.18,34.49,24.18L669.15,1.49l49.59,10.24L781.9,39.35,826.06,7.84l64.12.94,40.73,16.91,80.92-17.85h79.82l43.29,76.49h17.17l18.55-40.84,40.51-24.79,60.42-5.34,60.12-5.52,57.09,31.51L1430,33.84l32.41,5.51,30.83,36.25,10.7-5.35,10.69-33L1563.68,7.2l60,.64,53,21.32,16-14.5,42.32-6.37,38.25,17.9,42.32-9,51.27-7.32,54.43,14.38L1942,96.16l10.9,85.65v27.1Z" fill="#f1c57b" opacity="0.85" style="isolation:isolate"/><path id="Path_2" data-name="Path 2" d="M1953,208.91l-34.69-31.76-51.45-7-45.71-28.64-26.27-.68L1744.45,148,1653,126.65,1577.17,147l-48.82-40.72-50.06-3.75-102.79,36.8-33.12-19.91h-60.81l-48.2,29.88-33.95-26.91-86.54,16.94-45.11-28.41h-32.54L984,169.72l-63.84-30.43-60-7.88-48.16,23.5-37-18.76-42.66-3.34-33.93,18.34-26.1,8.74-33.75-37.55-48.77-3-58.16,12-26.19,2.44-39.57,17.3L381.8,122.34l-55.68,4.27-47.18,20.76-66.75-11.8h-44.7L138.44,152,93.75,160.9,72,160.75,50.49,172.24,31.35,183.72,0,208.91Z" fill="#be3e0c"/><path id="Path_1" data-name="Path 1" d="M0,208.91l11.36-18.16,40.3-7.7,24.48-15.38,23.8,2.49,33,13.63,73.85,7.33,41.26-9.52,42.79,1.09,55-17.69,61.9-12.53,60.89,26.58,53.7-12.62,43.1-31.61,87.61,14.66,39.84,40.7,59.76-35.27h65.48l61.26,18,56.08-18L984,169.72l35.4-9.52,36.27-10.42,35.76,43.49h30.22l71-38.36,60.52,18,59.78-18L1353.63,175l38.5-29.24,54.4,9.33,40.33-23.64,55.88,10,78.7,3.45,44.79,28,26.59-17.86,34.24-.14,27,38.35,31.78-32.94,38.75-.25,47.29,24.3,34.57-4.42,27.64,10,19,19Z" fill="#1f0a02"/></g><g id="Layer_2" data-name="Layer 2"><text transform="translate(26.55 101.87)" font-size="85" font-family="Tahoma-Bold, Tahoma" font-weight="700">What’s Happening Next?</text><text transform="translate(1524.59 104.91)" font-size="89" font-family="Tahoma-Bold, Tahoma" font-weight="700">MAGFest</text></g></svg>